<svg xmlns="http://www.w3.org/2000/svg" viewBox="0 0 730 283"><defs><style>.cls-1 { fill: #fff; }
</style></defs><g id="レイヤー_4" data-name="レイヤー 4"><path class="cls-1" d="M58.78,157.31h121v60.47H58.78Zm3.77-60.48H175.83V139.7H62.55Z"/><path class="cls-1" d="M190.48,186.47h43.41L237.51,155h-47v-25.8h84.13L268,186.47h11v31.31H190.48Z"/><path class="cls-1" d="M289.79,135.94h121v42.73H289.79Z"/><path class="cls-1" d="M553.19,110.67h52.54l1.61-13.84H654l-1.61,13.84h21.77v46.64H647l-7,60.47H593.5l6.86-60.47H553.19Z"/><path class="cls-1" d="M524.18,96.83,505.54,48.38,487.66,96.83H475.18L456.54,48.38,438.66,96.83H421.53v121H542.47V96.83ZM441,126h10v5h11v-5h9v17H454v14H441Zm82,58h-8l-1,9h-7l1-9H495l-1,9h-7l1-9H475l-1,9h-7l1-9H455l-1,9h-7l1-9h-7v-8h8l1-9h7l-1,9h13l1-9h7l-1,9h13l1-9h7l-1,9h13l1-9h7l-1,9h7Zm0-27H493V126h30Z"/><rect class="cls-1" x="503" y="137" width="10" height="10"/></g></svg>
