<svg width="340" height="94" viewBox="0 0 340 94" fill="none" xmlns="http://www.w3.org/2000/svg">
<path d="M0 60.2386H66.853V93.6786H0V60.2386ZM2.08294 26.793H64.6706V50.5002H2.08294V26.793Z" fill="#0A0A0A"/>
<path d="M72.7649 76.364H96.7491L98.7492 58.961H72.7815V44.6935H119.264L115.595 76.364H121.673V93.6785H72.7649V76.364Z" fill="#0A0A0A"/>
<path d="M127.634 48.4207H194.487V72.0505H127.634V48.4207Z" fill="#0A0A0A"/>
<path d="M273.164 34.4466H302.192L303.082 26.793H328.861L327.972 34.4466H340V60.2386H324.994L321.126 93.6786H295.435L299.225 60.2386H273.164V34.4466Z" fill="#0A0A0A"/>
<path d="M257.135 26.793L246.837 0L236.958 26.793H230.063L219.764 0L209.885 26.793H200.421V93.7062H267.241V26.793H257.135ZM211.178 42.924H216.703V45.6891H222.781V42.924H227.753V52.3251H218.361V60.0671H211.178V42.924ZM256.483 74.9982H252.063L251.511 79.9752H247.643L248.196 74.9982H241.013L240.461 79.9752H236.593L237.146 74.9982H229.963L229.411 79.9752H225.543L226.096 74.9982H218.913L218.361 79.9752H214.493L215.046 74.9982H211.178V70.5742H215.598L216.151 65.5971H220.018L219.466 70.5742H226.648L227.201 65.5971H231.068L230.516 70.5742H237.698L238.251 65.5971H242.118L241.566 70.5742H248.748L249.301 65.5971H253.168L252.616 70.5742H256.483V74.9982ZM256.483 60.0671H239.908V42.924H256.483V60.0671Z" fill="#0A0A0A"/>
<path d="M250.958 49.0069H245.433V54.5369H250.958V49.0069Z" fill="#0A0A0A"/>
</svg>
