<svg width="1106" height="169" fill="none" xmlns="http://www.w3.org/2000/svg"><g clip-path="url(#clip0)" fill="#fff"><path d="M868.2 123.6h-38.3v44.8h38.3v-44.8z"/><path fill-rule="evenodd" clip-rule="evenodd" d="M986.7 48.4v120H883.4v-65.1h41.9v31.8h19.5V48.4h41.9zm118.6 86.1h-61.4v34H1002v-120h103.4v86h-.1zm-40.5-52.1h-22.4v19.5h22.4V82.4zm-353.5-34h103.4v120h-39v-34h-22.4v34h-41.9v-120h-.1zm64.4 34h-22.4v19.5h22.4V82.4zm-657.1-34H222v36.9h-60v11.2h60v27.8h-60v11.2h60v32.9H118.6v-120zm474.2 0h103.4v120h-39v-86h-22.4v86h-41.9v-120h-.1zM0 48.4h103.4v120h-39v-86H41.9v86H0v-120zm340.5 120H237.1v-120h39v86.1h22.4V48.4h41.9v120h.1zm101.2-120h-86v120h40.5V128h17.3c3.2 0 5.8 2.6 5.8 5.8v34.7H459v-55.7c0-4.3-2.3-8-5.8-10V60c.1-6.4-5.1-11.6-11.5-11.6zm-28.2 33.3h-17.3v19.5h17.3c3.2 0 5.8-2.6 5.8-5.8v-8c0-3.1-2.6-5.7-5.8-5.7z"/><path d="M552.8 91.9h-8.7v8.7h8.7v-8.7z"/><path d="M568.7 48.4L550 0l-17.9 48.4h-12.5L501 0l-17.9 48.4h-8.9v120h103.4v-120h-8.9zm-60.1 38.4v-4.3h7.8v14.7h-14.7v12.1h-11.3V82.4h8.7v4.3h9.5v.1zm52.8 45.8h-6.9l-.9 7.8h-6.1l.9-7.8h-11.3l-.9 7.8h-6.1l.9-7.8h-11.3l-.9 7.8h-6.1l.9-7.8h-11.3l-.9 7.8h-6.1l.9-7.8h-6.1v-6.9h6.9l.9-7.8h6.1l-.9 7.8h11.3l.9-7.8h6.1l-.9 7.8h11.3l.9-7.8h6.1l-.9 7.8h11.3l.9-7.8h6.1l-.9 7.8h6.1v6.9zm0-23.3h-26V82.4h26v26.9z"/></g><defs><clipPath id="clip0"><path fill="#fff" d="M0 0h1105.3v168.4H0z"/></clipPath></defs></svg>