<svg xmlns="http://www.w3.org/2000/svg" viewBox="0 0 730 283"><defs><style>.cls-1{fill:#fff}</style></defs><g id="レイヤー_4" data-name="レイヤー 4"><path class="cls-1" d="M58.78 157.31h121v60.47h-121zm3.77-60.48h113.28v42.87H62.55zm127.93 89.64h43.41l3.62-31.47h-47v-25.8h84.13L268 186.47h11v31.31h-88.52zm99.31-50.53h121v42.73h-121zm263.4-25.27h52.54l1.61-13.84H654l-1.61 13.84h21.77v46.64H647l-7 60.47h-46.5l6.86-60.47h-47.17zm-29.01-13.84l-18.64-48.45-17.88 48.45h-12.48l-18.64-48.45-17.88 48.45h-17.13v121h120.94v-121zM441 126h10v5h11v-5h9v17h-17v14h-13zm82 58h-8l-1 9h-7l1-9h-13l-1 9h-7l1-9h-13l-1 9h-7l1-9h-13l-1 9h-7l1-9h-7v-8h8l1-9h7l-1 9h13l1-9h7l-1 9h13l1-9h7l-1 9h13l1-9h7l-1 9h7zm0-27h-30v-31h30z"/><path class="cls-1" d="M503 137h10v10h-10z"/></g></svg>