<svg viewBox="0 0 737 213" fill="none" xmlns="http://www.w3.org/2000/svg">
<g clip-path="url(#clip0_1_42)">
<path d="M714.482 26.844L694.184 14.8552L692.053 34.0639H689.131L692.158 5.29207H640.838C624.746 5.29207 611.208 17.3272 609.346 33.287L609.271 34.0639H585.432C572.531 34.0639 561.256 41.165 555.25 51.6776C554.68 50.7269 554.1 49.7854 553.49 48.8733C550.793 28.7215 538.709 7.72237 519.127 3.64872L516.02 3.00225L512.913 3.64872C503.335 5.64098 494.767 11.9823 488.459 21.5132C486.894 21.5273 485.689 21.563 484.957 21.5902C484.225 21.563 483.021 21.5273 481.456 21.5132C475.149 11.9818 466.58 5.64098 457.002 3.64872L453.895 3.00225L450.788 3.64872C431.207 7.72287 419.123 28.721 416.425 48.8738C412.935 54.098 410.085 59.9749 407.941 66.3045C405.318 63.5568 402.274 61.1228 398.846 59.0984L378.543 47.1091L376.568 64.9423H303.391C295.285 64.9423 287.88 68.0003 282.245 73.0218C280.839 63.6408 275.269 55.1275 266.545 49.9764L246.247 37.9905L244.56 53.1916H198.2C183.643 53.1916 171.799 65.0767 171.799 79.6852V94.1154H140.93C156.079 89.5966 168.309 77.4108 172.266 61.5393C177.082 42.2288 168.568 22.3152 151.08 11.9878L130.782 0L128.651 19.2077H45.2968C26.1154 19.2077 10.5099 34.8931 10.5099 54.1734V96.01L37.7101 96.0074C15.9922 102.078 0 122.148 0 145.92V178.524H127.181C139.98 178.524 151.777 174.149 161.2 166.821V175.957L254.78 175.949C255.156 175.96 255.529 175.966 255.902 175.966C272.53 175.966 287.281 164.591 291.309 148.44C292.441 143.901 292.648 139.323 292.031 134.909L376.606 134.902C377.048 134.916 377.487 134.923 377.926 134.923C385.253 134.923 392.253 132.962 398.343 129.498C398.363 129.683 398.376 129.855 398.397 130.042C401.93 161.428 435.978 186.965 474.307 186.993L484.838 187.076L488.586 187.085C509.457 203.632 535.609 213 562.711 213C589.628 213 617.246 203.63 638.483 187.293C662.129 169.103 676.871 143.284 680 114.59L680.433 110.856L689.783 110.855C711.251 111.574 730.502 97.1161 735.668 76.395C740.484 57.0855 731.97 37.1724 714.482 26.844ZM600.941 110.862L600.013 120.252C594.079 161.67 570.062 166.652 552.494 166.792C552.369 166.793 552.247 166.794 552.123 166.794C551.729 166.794 551.339 166.77 550.947 166.76C562.31 156.838 569.945 144.022 571.519 130.042C572.399 122.222 572.459 116.085 572.041 110.864L600.941 110.862ZM182.956 114.129V113.906L183.786 113.906C183.504 113.968 183.234 114.058 182.956 114.129Z" fill="#C026D3"/>
<path d="M127.888 88.418C145.264 88.4175 160.675 76.552 164.876 59.7016C168.871 43.6804 161.769 27.136 147.203 18.5341L137.054 12.5402L135.755 24.2425C135.593 25.7082 134.35 26.8133 132.867 26.8133H45.2968C30.3155 26.8133 18.1266 39.0871 18.1266 54.1734V88.4034L126.512 88.3934C126.973 88.41 127.43 88.418 127.888 88.418Z" fill="white"/>
<path d="M710.605 33.3903L700.456 27.3958L699.157 39.0987C698.995 40.5643 697.752 41.6695 696.269 41.6695H680.673L683.699 12.8976H640.838C628.612 12.8976 618.326 22.0413 616.912 34.1666L616.212 41.6695H585.432C570.451 41.6695 558.262 53.9433 558.262 69.0295V83.2105C558.06 82.217 557.86 81.1947 557.667 80.1046L557.666 80.1041C555.76 69.3427 551.794 59.5556 546.152 51.6424C545.275 43.0057 542.547 34.517 538.368 27.5131C532.978 18.4807 525.787 12.8035 517.574 11.0947L516.02 10.7714L514.467 11.0942C505.826 12.8916 498.1 19.3684 492.743 29.1399C488.838 29.0644 485.976 29.158 484.957 29.2013C483.94 29.158 481.076 29.0644 477.171 29.1399C471.816 19.3678 464.09 12.8916 455.448 11.0942L453.895 10.7714L452.341 11.0947C435.711 14.5546 425.598 33.7054 423.763 51.6409C418.121 59.5556 414.155 69.3432 412.249 80.1041C411.779 82.7543 411.278 85.0826 410.764 87.2367C408.846 78.4496 403.305 70.5685 394.969 65.6452L384.818 59.6502L383.521 71.3551C383.455 71.9417 382.935 72.5479 382.175 72.5479H303.391C289.998 72.5479 279.102 83.5162 279.102 96.9978V123.005C276.848 120.007 273.967 117.399 270.538 115.373L263.875 111.438C265.804 105.649 268.471 99.0143 270.579 93.77C273.188 87.2766 274.128 84.8902 274.4 83.0771C276.738 72.6903 272.073 62.076 262.668 56.5226L252.519 50.5297L251.38 60.7972H198.2C187.842 60.7972 179.415 69.2702 179.415 79.6852V106.3L218.176 106.297C217.74 107.779 217.338 109.226 216.974 110.633C215.272 117.216 213.919 119.842 213.265 120.821H190.059C184.235 120.821 178.953 123.195 175.112 127.028C175.258 125.489 175.339 123.931 175.339 122.355V101.721H51.4553C27.2821 101.721 7.6167 121.549 7.6167 145.92V170.918H127.181C144.936 170.918 160.466 161.172 168.817 146.713V168.351L254.904 168.343C255.239 168.355 255.571 168.361 255.904 168.361C269.063 168.361 280.734 159.369 283.918 146.602C285.582 139.931 284.701 133.15 281.758 127.305L376.735 127.296C377.136 127.31 377.531 127.317 377.928 127.317C388.992 127.317 399.152 121.859 405.343 113.232C405.103 117.646 405.244 122.785 405.966 129.192C409.028 156.401 440.352 179.388 474.307 179.388L484.898 179.47L491.265 179.451C511.126 195.985 536.44 205.394 562.711 205.394C587.981 205.394 613.903 196.601 633.834 181.269C655.836 164.343 669.545 140.352 672.428 113.769L673.646 103.251L689.914 103.25C707.84 103.907 723.967 91.8533 728.278 74.5578C732.273 58.537 725.171 41.9932 710.605 33.3903ZM563.951 129.192C565.282 117.362 564.637 109.849 563.265 103.259L609.346 103.256L607.577 121.162C602.532 156.73 584.533 174.142 552.554 174.397C552.409 174.398 552.265 174.399 552.12 174.399C545.049 174.399 538.199 173.007 531.85 170.4C549.33 161.243 562.054 146.029 563.951 129.192Z" fill="white"/>
<path d="M51.4548 109.327H167.722V122.354C167.722 144.975 149.571 163.313 127.181 163.313H15.2339V145.921C15.2339 125.71 31.4505 109.327 51.4548 109.327Z" fill="#C026D3"/>
<path d="M126.656 80.7876L25.7437 80.7974V54.1734C25.7437 43.2631 34.498 34.4186 45.2971 34.4186H132.867C138.283 34.4186 142.743 30.3332 143.325 25.0804C154.381 31.6097 160.799 44.5746 157.485 57.8637C153.952 72.0303 140.713 81.3541 126.656 80.7876Z" fill="#C026D3"/>
<path d="M376.879 119.69L286.718 119.699V96.9977C286.718 87.695 294.183 80.1536 303.391 80.1536H382.174C386.792 80.1536 390.595 76.6702 391.091 72.1913C400.518 77.7586 405.99 88.8132 403.165 100.144C400.153 112.223 388.864 120.173 376.879 119.69Z" fill="#C026D3"/>
<path d="M706.727 39.9366C706.145 45.1895 701.685 49.2749 696.269 49.2749H672.21L672.254 48.8933L675.24 20.5032H640.837C632.478 20.5032 625.444 26.7559 624.477 35.0468L623.188 48.8933L623.144 49.2749H585.432C574.633 49.2749 565.878 58.1195 565.878 69.0297V95.6537L617.789 95.6496L617.531 97.8886L615.141 122.067C609.776 160.228 589.371 181.71 552.615 182.002C532.488 182.162 514.594 172.455 503.228 157.647L479.064 155.51C497.956 181.15 528.388 197.789 562.712 197.789C609.534 197.789 659.105 165.966 664.862 112.896L666.599 97.8886L666.858 95.6457L690.058 95.6439C704.115 96.2104 717.354 86.8865 720.887 72.72C724.201 59.4309 717.783 46.4659 706.727 39.9366Z" fill="#C026D3"/>
<path d="M266.661 121.92C266.255 125.58 263.147 128.427 259.373 128.427H252.497C252.888 124.79 253.537 120.465 254.616 115.966C257.45 104.154 266.859 83.7962 266.878 81.793C268.771 74.203 265.106 66.7983 258.791 63.0692C258.458 66.0693 255.911 68.4026 252.818 68.4026H198.2C192.032 68.4026 187.032 73.454 187.032 79.6853V98.694L228.711 98.6902C227.141 103.007 225.582 107.77 224.349 112.534C221.324 124.234 218.451 127.822 215.119 128.427H190.059C182.534 128.427 176.433 134.59 176.433 142.193V160.745L255.045 160.738C264.84 161.133 274.066 154.636 276.528 144.764C278.837 135.504 274.364 126.47 266.661 121.92Z" fill="#C026D3"/>
<path d="M550.166 81.429C548.26 70.6669 544.217 61.4811 538.74 54.4314C537.723 38.2091 528.887 21.2169 516.02 18.5399C507.899 20.2292 501.384 27.6197 497.427 36.9197C490.282 36.5366 484.957 36.8142 484.957 36.8142C484.957 36.8142 479.633 36.5366 472.488 36.9197C468.531 27.6197 462.016 20.2292 453.895 18.5399C441.027 21.2169 432.192 38.2091 431.175 54.4314C425.699 61.4811 421.656 70.667 419.749 81.429C416.257 101.138 410.942 105.319 413.535 128.343C416.126 151.366 443.654 171.782 474.367 171.782L484.957 171.865V171.782H495.549C526.261 171.782 553.789 151.366 556.381 128.343C558.973 105.319 553.658 101.138 550.166 81.429ZM507.28 113.154C506.12 124.244 493.799 134.079 480.053 134.079H475.312V134.119L470.572 134.079C456.826 134.079 444.505 124.244 443.345 113.154C442.185 102.063 444.563 100.049 446.126 90.5553C447.689 81.0615 452.442 74.0877 458.513 71.3873C459.742 70.8407 461.104 70.4179 462.504 70.0911C465.791 70.2456 466.52 75.0597 468.288 77.0809C468.841 77.7137 469.869 77.2253 469.797 76.3883C469.344 71.0568 471.33 69.2811 478.361 69.025C481.904 69.0758 487.811 69.4744 492.111 71.3873C498.184 74.0877 502.936 81.0615 504.499 90.5553C506.062 100.049 508.44 102.063 507.28 113.154Z" fill="#C026D3"/>
</g>
<defs>
<clipPath id="clip0_1_42">
<rect width="737" height="213" fill="white"/>
</clipPath>
</defs>
</svg>
