<?xml version="1.0" encoding="UTF-8"?>
<svg id="_レイヤー_2" data-name="レイヤー_2" xmlns="http://www.w3.org/2000/svg" width="556.5612755" height="141.408816" viewBox="0 0 556.5612755 141.408816">
  <g id="_レイヤー_5" data-name="レイヤー_5">
    <g>
      <path d="M28.532776,71.6212762h91.5888505v10.2776333c0,17.8453627-14.2981257,32.3118874-31.9357576,32.3118874H0v-13.7206942c0-15.9438126,12.7745589-28.8688264,28.532776-28.8688264Z" style="fill: #fff;"/>
      <path d="M87.7722575,49.1069773l-79.4932125.0077422v-21.0035771c0-8.607059,6.8961788-15.5844589,15.4030465-15.5844589h68.9828045c4.2661874,0,7.7796044-3.2229935,8.23819-7.3669194,8.7090608,5.1509257,13.7646906,15.3788949,11.1542562,25.8626525-2.7827851,11.1759346-13.2119206,18.5314644-24.2850846,18.0845608Z" style="fill: #fff;"/>
      <path d="M284.8831429,79.7972677l-71.0231006.0066014v-17.9088346c0-7.338864,5.880071-13.2881887,13.1335062-13.2881887h62.0613339c3.637592,0,6.6333295-2.748106,7.0243454-6.281451,7.4258365,4.3919698,11.7365516,13.1129133,9.510748,22.0519563-2.3727595,9.5292322-11.2652288,15.8009718-20.7068329,15.4199166Z" style="fill: #fff;"/>
      <path d="M544.7190828,16.8798243c-.4584961,4.1439209-3.972168,7.3669434-8.2382812,7.3669434h-18.9521484l.034668-.3010864,2.3520508-22.3967896h-27.1005859c-6.5849609,0-12.1254883,4.9326782-12.887207,11.4733276l-1.0161133,10.9234619-.034668.3010864h-29.7070312c-8.5068359,0-15.4033203,6.977417-15.4033203,15.5844727v21.00354l40.8925781-.0032349-.2036133,1.7663574-1.8823242,19.0740356c-4.2265625,30.1049194-20.300293,47.0523071-49.2548828,47.2828979-15.8544922.1263428-29.9506836-7.5321655-38.9042969-19.213501l-19.034668-1.6865234c14.8818359,20.2277222,38.8544922,33.3540039,65.8925781,33.3540039,36.8837891,0,75.9331055-25.1051636,80.4682617-66.9719238l1.3681641-11.8389893.2041016-1.7694092,18.2758789-.0014648c11.0732422.4468994,21.5024414-6.9086304,24.2851562-18.0845337,2.6103516-10.4837646-2.4453125-20.711731-11.1542969-25.8626709Z" style="fill: #fff;"/>
      <path d="M198.0599032,81.5559717c-.3198242,2.8875732-2.7680664,5.1334229-5.7407227,5.1334229h-5.4165039c.3081055-2.8692627.8188477-6.281189,1.6689453-9.8302002,2.2324219-9.3181763,9.6445312-25.3787231,9.659668-26.9591064,1.4907227-5.9876709-1.3964844-11.8292236-6.3706055-14.7711182-.262207,2.3667603-2.2685547,4.2075195-4.7050781,4.2075195h-43.0253906c-4.8588867,0-8.7973633,3.9850464-8.7973633,8.9008789v14.9959106l32.8325195-.0029907c-1.2368164,3.4052734-2.465332,7.163147-3.4360352,10.9208984-2.3833008,9.2307129-4.6464844,12.0612183-7.2714844,12.538208h-19.7407227c-5.9277344,0-10.7333984,4.8620605-10.7333984,10.8596802v14.6358032l61.9262695-.0053711c7.7158203.3114014,14.9833984-4.8141479,16.9223633-12.6018066,1.8188477-7.3053589-1.7041016-14.4324341-7.7724609-18.0217285Z" style="fill: #fff;"/>
      <path d="M421.3895484,49.6129761c-1.5019531-8.4901733-4.6870117-15.7368774-9.0009766-21.2982788-.8012695-12.7977905-7.7612305-26.2028198-17.8979492-28.3146973-6.3969727,1.3327026-11.5288086,7.1630249-14.6464844,14.4997559-5.628418-.3022461-9.8227539-.083252-9.8227539-.083252,0,0-4.1943359-.2189941-9.8222656.083252-3.1176758-7.336731-8.2495117-13.1670532-14.6464844-14.4997559-10.1367188,2.1118774-17.0966797,15.5169067-17.8979492,28.3146973-4.3139648,5.5614624-7.4985352,12.8081665-9.0009766,21.2982788-2.7504883,15.5479736-6.9370117,18.8469238-4.8950195,37.0098877,2.0415039,18.1629639,23.7265625,34.2693481,47.9199219,34.2693481l8.3427734.0650024v-.0650024h8.3432617c24.1933594,0,45.878418-16.1063843,47.9204102-34.2693481,2.0415039-18.1629639-2.1450195-21.4619141-4.8955078-37.0098877ZM387.6063452,74.640686c-.9140625,8.7492676-10.6196289,16.5078125-21.4482422,16.5078125h-3.734375v.031311l-3.7338867-.031311c-10.8286133,0-20.534668-7.7585449-21.4482422-16.5078125s.9599609-10.3384399,2.190918-17.8280029c1.2314453-7.489624,4.9750977-12.991272,9.7578125-15.121582.9682617-.4312134,2.0410156-.7647705,3.144043-1.022583,2.5893555.1218872,3.1635742,3.9196777,4.5556641,5.5142212.4360352.4992676,1.2456055.1139526,1.1894531-.5463867-.3574219-4.2059937,1.2070312-5.6068115,6.7460938-5.8088989,2.7905273.0401001,7.4438477.3546143,10.831543,1.8636475,4.7832031,2.1303101,8.5268555,7.631958,9.7578125,15.121582,1.2314453,7.489563,3.1049805,9.0787354,2.1914062,17.8280029Z" style="fill: #fff;"/>
    </g>
  </g>
</svg>
